<svg xmlns="http://www.w3.org/2000/svg" viewBox="0 0 60 60">
  <defs>
    <style>
      .cls-1 {
        fill: #4285f4;
      }
    </style>
  </defs>
  <title>Asset 5</title>
  <g id="Layer_2" data-name="Layer 2">
    <g id="Layer_1-2" data-name="Layer 1">
      <g>
        <path class="cls-1" d="M30,27.18A1.91,1.91,0,0,0,30,31h0A1.91,1.91,0,1,0,30,27.18Z"/>
        <path class="cls-1" d="M23.76,27.18a1.91,1.91,0,0,0,0,3.82h0a1.91,1.91,0,0,0-.06-3.82Z"/>
        <path class="cls-1" d="M36.18,27.18a1.91,1.91,0,0,0,0,3.82h0a1.91,1.91,0,1,0-.06-3.82Z"/>
        <path class="cls-1" d="M30,0A30,30,0,1,0,60,30,30,30,0,0,0,30,0ZM44.33,32.46a8.61,8.61,0,0,1-8.12,8.59v4a.81.81,0,0,1-.81.81.82.82,0,0,1-.57-.24l-.9-.9a12.38,12.38,0,0,0-8.81-3.65h-.85a8.61,8.61,0,0,1-8.6-8.6V25.78a8.61,8.61,0,0,1,8.6-8.6H35.73a8.61,8.61,0,0,1,8.6,8.6Z"/>
      </g>
    </g>
  </g>
</svg>
