<svg width="21" height="15" viewBox="0 0 21 15" fill="none" xmlns="http://www.w3.org/2000/svg">
<path d="M20.2176 15C18.4857 15 16.7537 15 15.0379 15C13.0955 15 11.1693 15 9.22689 15C8.35282 15 7.49492 14.8374 6.65322 14.6259C5.87626 14.4308 5.11549 14.1543 4.38709 13.7802C3.62632 13.3898 2.93029 12.9182 2.29901 12.3489C1.60298 11.7309 1.03645 11.0153 0.631786 10.2021C0.227119 9.38886 0.0166929 8.51059 0.000506273 7.58354C-0.0156804 6.29867 0.356612 5.14391 1.06882 4.103C1.73248 3.09463 2.62274 2.31395 3.6425 1.67964C4.67845 1.02908 5.81151 0.606207 6.99314 0.329716C7.6406 0.183339 8.28807 0.0857536 8.96791 0.0369611C9.37257 0.020697 9.77724 -0.0118315 10.1819 0.00443267C11.0236 0.0206968 11.8653 0.118282 12.6908 0.313452C13.6782 0.541151 14.6332 0.882698 15.5397 1.35436C16.2519 1.7447 16.9156 2.2001 17.5306 2.75308C18.2752 3.43617 18.8579 4.23312 19.2626 5.16018C19.4892 5.68063 19.6349 6.23361 19.7158 6.81912C19.8453 7.86003 19.6997 8.83588 19.3112 9.79547C19.0684 10.3972 18.7285 10.934 18.3238 11.4381C18.1943 11.6008 18.0648 11.7472 17.9353 11.8773C17.8706 11.9423 17.8544 11.9911 17.8867 12.0887C18.1457 12.9019 18.5504 13.6338 19.1817 14.2193C19.4245 14.447 19.6997 14.6585 20.0072 14.8048C20.0881 14.8374 20.1691 14.9024 20.25 14.9349C20.2338 14.9675 20.2338 14.9837 20.2176 15ZM12.8365 8.70576C13.2736 8.70576 13.7268 8.6895 14.1638 8.70576C14.3581 8.70576 14.3904 8.64071 14.3904 8.4618C14.3742 7.81124 14.3742 7.16067 14.3904 6.49384C14.3904 6.31493 14.3419 6.26614 14.1638 6.26614C13.2736 6.2824 12.3995 6.26614 11.5092 6.2824C11.2988 6.2824 11.2664 6.21735 11.2664 6.02218C11.2826 5.14391 11.2664 4.28191 11.2664 3.40364C11.2664 3.241 11.234 3.19221 11.056 3.19221C10.3761 3.20847 9.68012 3.20847 9.00028 3.19221C8.82223 3.19221 8.78986 3.25727 8.78986 3.40364C8.78986 4.28191 8.78986 5.16018 8.78986 6.03844C8.78986 6.21735 8.74129 6.26614 8.56324 6.26614C7.68916 6.24988 6.83127 6.26614 5.95719 6.24988C5.74677 6.24988 5.71439 6.31493 5.71439 6.5101C5.73058 7.16067 5.73058 7.79497 5.71439 8.44554C5.71439 8.62444 5.76295 8.6895 5.94101 8.6895C6.7989 8.67324 7.65679 8.6895 8.51468 8.67324C8.72511 8.67324 8.77367 8.73829 8.77367 8.93346C8.75748 9.81173 8.77367 10.6737 8.75748 11.552C8.75748 11.6984 8.78986 11.7472 8.95172 11.7472C9.63156 11.7309 10.3276 11.7309 11.0074 11.7472C11.1855 11.7472 11.2179 11.6821 11.2179 11.5195C11.2017 10.6412 11.2179 9.76294 11.2179 8.88467C11.2179 8.72203 11.2502 8.67324 11.4283 8.67324C11.9463 8.72203 12.3995 8.70576 12.8365 8.70576Z" fill="#ccc"/>
</svg>
